<?xml version="1.0" encoding="utf-8"?>
<!-- Generator: Adobe Illustrator 23.0.6, SVG Export Plug-In . SVG Version: 6.00 Build 0)  -->
<svg version="1.1" id="Capa_1" xmlns="http://www.w3.org/2000/svg" xmlns:xlink="http://www.w3.org/1999/xlink" x="0px" y="0px"
	 viewBox="0 0 3968.5 3968.5" style="enable-background:new 0 0 3968.5 3968.5;" xml:space="preserve">
<style type="text/css">
	.st0{fill:#FFFFFF;}
	.st1{fill:#EDEDED;}
	.st2{fill:none;stroke:#EDEDED;stroke-width:40;}
	.st3{fill:#DDAB89;}
	.st4{clip-path:url(#SVGID_2_);fill:#FFFFFF;}
	.st5{fill:#254553;}
	.st6{fill:#B2CE5B;}
	.st7{fill:#E8BA9C;}
	.st8{fill:#EFCFB9;}
	.st9{fill:#6DCAF3;}
	.st10{fill:#EAA182;}
	.st11{clip-path:url(#SVGID_4_);fill:#EAA182;}
	.st12{fill:#FABF97;}
	.st13{fill:#454547;}
	.st14{fill:#284354;}
	.st15{fill:#688DA7;}
	.st16{fill:#416170;}
	.st17{fill:#FC9493;}
	.st18{fill:#FBC5A1;}
	.st19{clip-path:url(#SVGID_6_);fill:#EFB59A;}
	.st20{fill:#FBCCAC;}
	.st21{fill:#FCD9C1;}
	.st22{fill:#F4C8B3;}
	.st23{clip-path:url(#SVGID_8_);fill:#F4C8B3;}
	.st24{fill:#E26668;}
	.st25{clip-path:url(#SVGID_10_);fill:#FFFFFF;}
	.st26{clip-path:url(#SVGID_10_);fill:#FC9493;}
	.st27{clip-path:url(#SVGID_12_);fill:#F4C8B3;}
	.st28{clip-path:url(#SVGID_14_);fill:#416170;}
	.st29{fill:#3D5665;}
	.st30{clip-path:url(#SVGID_16_);fill:#F4C8B3;}
	.st31{fill:#294354;}
	.st32{clip-path:url(#SVGID_18_);fill:#EAA182;}
	.st33{clip-path:url(#SVGID_20_);fill:#FFFFFF;}
	.st34{clip-path:url(#SVGID_20_);fill:#FC9493;}
</style>
<polygon class="st0" points="0,0 0,3968.5 3968.5,3968.5 3968.5,0 0,0 "/>
<g>
	<path class="st1" d="M1864.61,1650.46c174.09,0,315.21-141.13,315.21-315.21c0-174.09-141.12-315.21-315.21-315.21
		c-174.08,0-315.21,141.12-315.21,315.21C1549.4,1509.33,1690.53,1650.46,1864.61,1650.46L1864.61,1650.46z"/>
	<path class="st2" d="M901.85,907.09H441.27c0,0-62.36,0-62.36,62.36v1570.3 M1864.61,2515.75v-497.48c0,0,0-62.36-59.12-82.21
		l-874.12-293.38c0,0-59.12-19.85-59.12-82.21V759.69 M1864.61,1438.59v687.4 M3258.89,1406.12V742.81c0,0,0-62.36-62.36-62.36
		h-743.75 M1864.61,1406.12V742.81c0,0,0-62.36,62.36-62.36h743.75 M2024.42,2466.14h544.26c0,0,62.36,0,62.36-62.36v-588.96
		c0,0,0-62.36,62.36-62.36h192.76 M2024.42,2466.14h544.26c0,0,62.36,0,62.36,62.37v389.76c0,0,0,62.36,62.36,62.36h192.76
		 M1864.61,2466.14h-735.93"/>
	<path class="st3" d="M2497.65,2769.17c0,0,27.5,98.19-129.48,136.61l-447.35,109.5c0,0-47.6,11.65-60.81-35.53l-14.29-51.01
		c0,0-27.5-98.19,129.48-136.61l397.82-97.38c0,0,97.13-23.77,124.1,72.52L2497.65,2769.17L2497.65,2769.17z"/>
	<path class="st3" d="M2472.64,3083.33c0,0,9.62,97.38-145.13,107.54l-441.03,28.95c0,0-46.9,3.08-51.52-43.7l-5-50.6
		c0,0-9.63-97.37,145.13-107.53l392.13-25.74c0,0,95.79-6.29,105.24,89.25L2472.64,3083.33L2472.64,3083.33z"/>
	<path class="st3" d="M2454.83,3322.64c0,0,10.13,102.47-152.77,113.16l-463.71,30.43c0,0-49.89,3.28-54.81-46.48l-5.21-52.71
		c0,0-10.13-102.47,152.77-113.16l412.82-27.1c0,0,100.78-6.61,110.72,93.9L2454.83,3322.64L2454.83,3322.64z"/>
	<path class="st3" d="M2275.26,3639.78c0,0-8.61,91.85-153.67,73.42l-412.72-52.45c0,0-44.64-5.67-40.44-50.47l4.41-47.05
		c0,0,8.62-91.86,153.68-73.42l367.08,46.65c0,0,90.28,11.47,81.78,102.07L2275.26,3639.78L2275.26,3639.78z"/>
	<g>
		<defs>
			<polygon id="SVGID_1_" points="1585.48,2202.02 1585.48,3446.33 2390.17,3446.33 2390.17,2202.02 1585.48,2202.02 			"/>
		</defs>
		<use xlink:href="#SVGID_1_"  style="overflow:visible;fill:#EDEDED;"/>
		<clipPath id="SVGID_2_">
			<use xlink:href="#SVGID_1_"  style="overflow:visible;"/>
		</clipPath>
		<polygon class="st4" points="1635.19,2201.94 1635.19,3446.33 2340.46,3446.33 2340.46,2201.94 1635.19,2201.94 		"/>
	</g>
	<path class="st5" d="M2389.87,2203.14v-34.69c0,0,0-123.26-153.82-123.26h-496.99c0,0-153.81-11.57-153.81,123.26v34.69H2389.87
		L2389.87,2203.14z M1585.25,3447.45v104.85c0,0,0,92.73,153.81,92.73h496.99c0,0,153.82,7.03,153.82-127.63v-69.95H1585.25
		L1585.25,3447.45z"/>
	<polygon class="st1" points="1922.97,2117.35 1922.97,2139.86 2102.44,2139.86 2102.44,2117.35 1922.97,2117.35 	"/>
	<polygon class="st1" points="1873.45,2117.35 1873.45,2139.86 1903.4,2139.86 1903.4,2117.35 1873.45,2117.35 	"/>
	<path class="st6" d="M1692.13,3304.78v-98.5c0,0,0-56.88,51.2-56.88h428.46h3.42h108.07l-56.99,52.57c0.07,1.4,0.11,2.83,0.11,4.31
		v98.5c0,0,0,56.88-51.19,56.88h-431.88C1743.33,3361.66,1692.13,3361.66,1692.13,3304.78L1692.13,3304.78z"/>
	<polygon class="st0" points="1741.4,3205.13 1741.4,3217.77 2180.32,3217.77 2180.32,3205.13 1741.4,3205.13 	"/>
	<polygon class="st0" points="1741.4,3287.74 1741.4,3303.25 2100.15,3303.25 2100.15,3287.74 1741.4,3287.74 	"/>
	<polygon class="st0" points="1741.4,3245.87 1741.4,3258.51 2180.32,3258.51 2180.32,3245.87 1741.4,3245.87 	"/>
	<path class="st7" d="M1863.15,3648.29c0,0,311.78-247.31,156.46-372.75c-95.31-76.98-154.44,75.75-244.76,115.69
		c-145.53,64.35-189.6,111.46-189.6,111.46v-515.02c-22.72,6.38-123.65,54.76-162.54,110.92
		c-38.88,56.16-239.52,610.13-251.65,647.46c-5.79,17.8-83.42,196.77-104.04,222.45h631.26
		C1748.31,3925.83,1828.43,3825.68,1863.15,3648.29L1863.15,3648.29z"/>
	<path class="st8" d="M1895.34,3407.73c0,0-67.48-39.77-36.4-81.48c0,0,68.96-101.66,127.91-49.2c7.33,6.53,57.95,40.58,18.75,96.55
		l-13.11,18.73c0,0-39.2,55.98-95.17,16.78L1895.34,3407.73L1895.34,3407.73z"/>
	<path class="st6" d="M1692.13,2591.65v-218.57c0,0,0-56.88,51.2-56.88h428.46h3.42h108.07l-56.99,52.57
		c0.07,1.4,0.11,2.83,0.11,4.31v218.57c0,0,0,56.88-51.19,56.88h-431.88C1743.33,2648.53,1692.13,2648.53,1692.13,2591.65
		L1692.13,2591.65z"/>
	<polygon class="st0" points="1741.4,2371.93 1741.4,2384.57 2180.32,2384.57 2180.32,2371.93 1741.4,2371.93 	"/>
	<polygon class="st0" points="1741.4,2494.16 1741.4,2506.8 2180.32,2506.8 2180.32,2494.16 1741.4,2494.16 	"/>
	<polygon class="st0" points="1741.4,2453.42 1741.4,2466.06 2180.32,2466.06 2180.32,2453.42 1741.4,2453.42 	"/>
	<polygon class="st0" points="1741.4,2534.9 1741.4,2547.54 2180.32,2547.54 2180.32,2534.9 1741.4,2534.9 	"/>
	<polygon class="st0" points="1741.4,2575.65 1741.4,2588.29 2100.15,2588.29 2100.15,2575.65 1741.4,2575.65 	"/>
	<polygon class="st0" points="1741.4,2412.67 1741.4,2425.31 2180.32,2425.31 2180.32,2412.67 1741.4,2412.67 	"/>
	<path class="st9" d="M2283.28,3009.04v-218.56c0,0,0-56.88-51.19-56.88h-428.46h-3.42h-108.08l56.99,52.56
		c-0.06,1.41-0.11,2.84-0.11,4.32v218.56c0,0,0,56.88,51.2,56.88h431.88C2232.09,3065.92,2283.28,3065.92,2283.28,3009.04
		L2283.28,3009.04z"/>
	<polygon class="st0" points="2234.02,2789.32 2234.02,2801.96 1795.09,2801.96 1795.09,2789.32 2234.02,2789.32 	"/>
	<polygon class="st0" points="2234.02,2911.56 2234.02,2924.2 1795.09,2924.2 1795.09,2911.56 2234.02,2911.56 	"/>
	<polygon class="st0" points="2234.02,2870.81 2234.02,2883.45 1795.09,2883.45 1795.09,2870.81 2234.02,2870.81 	"/>
	<polygon class="st0" points="2234.02,2952.3 2234.02,2964.94 1795.09,2964.94 1795.09,2952.3 2234.02,2952.3 	"/>
	<polygon class="st0" points="2234.02,2993.04 2234.02,3005.68 1875.27,3005.68 1875.27,2993.04 2234.02,2993.04 	"/>
	<polygon class="st0" points="2234.02,2830.07 2234.02,2842.71 1795.09,2842.71 1795.09,2830.07 2234.02,2830.07 	"/>
	<path class="st10" d="M1984.05,1292.68c-13.96-5.71-17.78-29.13-8.55-52.31c9.24-23.17,28.04-37.32,41.99-31.61
		c13.96,5.72,17.79,29.14,8.55,52.31C2016.81,1284.25,1998.01,1298.4,1984.05,1292.68L1984.05,1292.68z"/>
	<path class="st10" d="M1740.67,1292.68c13.96-5.71,17.79-29.13,8.55-52.31c-9.23-23.17-28.03-37.32-41.99-31.61
		c-13.96,5.72-17.78,29.14-8.55,52.31C1707.92,1284.25,1726.72,1298.4,1740.67,1292.68L1740.67,1292.68z"/>
	<g>
		<defs>
			<polygon id="SVGID_3_" points="1931.25,1326.46 1914.03,1547.03 1810.7,1547.03 1793.47,1326.46 1931.25,1326.46 			"/>
		</defs>
		<use xlink:href="#SVGID_3_"  style="overflow:visible;fill:#FABF97;"/>
		<clipPath id="SVGID_4_">
			<use xlink:href="#SVGID_3_"  style="overflow:visible;"/>
		</clipPath>
		<path class="st11" d="M1919.05,1424.4c-103.3,0-215.82-154.28-215.82-330.41c0-176.12-63.3-318.9,215.82-318.9
			s215.82,142.78,215.82,318.9C2134.87,1270.12,2022.35,1424.4,1919.05,1424.4L1919.05,1424.4z"/>
	</g>
	<path class="st12" d="M1862.36,1450.71c-26.45,0-98.86-34.83-125.9-71.92c-18.43-25.3-10.04-41.69-10.04-87.91
		c0-113.99-42.25-252.95,135.94-252.95c178.19,0,135.94,138.96,135.94,252.95c0,46.99,8,62.85-10.97,88.24
		C1960.28,1415.32,1888.82,1450.71,1862.36,1450.71L1862.36,1450.71z"/>
	<path class="st13" d="M1797.53,1234.67c14.13,1,27.55,11.21,28.76-2.01c1.39-15.26-12.6-25.33-26.69-26.81
		c-10.97-1.15-26.65,10.48-26.13,23.76C1774.05,1244.41,1783.39,1233.67,1797.53,1234.67L1797.53,1234.67z"/>
	<path class="st13" d="M1927.2,1234.67c-14.14,1-27.55,11.21-28.76-2.01c-1.4-15.26,12.59-25.33,26.69-26.81
		c10.97-1.15,26.64,10.48,26.12,23.76C1950.68,1244.41,1941.33,1233.67,1927.2,1234.67L1927.2,1234.67z"/>
	<path class="st14" d="M1797.18,1234.81c14.11,1,27.5,11.19,28.7-2c1.39-15.24-12.57-25.29-26.63-26.77
		c-10.95-1.14-26.59,10.46-26.07,23.71C1773.75,1244.53,1783.08,1233.81,1797.18,1234.81L1797.18,1234.81z"/>
	<path class="st14" d="M1927.54,1234.81c-14.11,1-27.49,11.19-28.7-2c-1.39-15.24,12.57-25.29,26.64-26.77
		c10.94-1.14,26.58,10.46,26.07,23.71C1950.97,1244.53,1941.65,1233.81,1927.54,1234.81L1927.54,1234.81z"/>
	<path class="st15" d="M2086.3,1648.75c-25.71-70-51.04-130.01-51.04-130.01s-0.55-1.06-1.8-1.36
		c-34.4-25.14-114.99-31.87-114.99-31.87l0,0l0,0l0,0c0,0.03-3.61,41.98-56.2,41.98c-52.6,0-56.22-41.98-56.22-41.98
		s-80.82,6.75-115.14,31.98c-1,0.39-1.44,1.25-1.44,1.25s-25.33,60.01-51.04,130.01c30.57,11.45,62.44,20.62,95.34,27.28l0,0
		c0.08,0.01,0.16,0.03,0.23,0.04c4.5,0.91,9.02,1.76,13.56,2.58c1.28,0.23,2.56,0.45,3.85,0.67c3.79,0.66,7.6,1.29,11.42,1.88
		c0.99,0.15,1.98,0.32,2.98,0.47c4.41,0.66,8.84,1.27,13.28,1.84c1.76,0.23,3.53,0.44,5.3,0.65c2.92,0.35,5.85,0.68,8.78,1
		c1.95,0.2,3.89,0.42,5.85,0.61c4.08,0.4,8.17,0.76,12.28,1.08l0,0c16.83,1.32,33.85,2.01,51.06,2.01c17.14,0,34.1-0.68,50.86-1.99
		l0,0c4.13-0.32,8.25-0.69,12.35-1.09c1.95-0.19,3.88-0.4,5.82-0.61c2.95-0.31,5.89-0.64,8.83-1c1.74-0.21,3.48-0.41,5.22-0.63
		c4.46-0.58,8.9-1.18,13.32-1.85c0.97-0.14,1.93-0.31,2.9-0.45c3.86-0.6,7.71-1.23,11.55-1.9c1.22-0.21,2.45-0.42,3.68-0.64
		c37.8-6.78,74.32-16.82,109.14-29.85C2086.12,1648.82,2086.21,1648.78,2086.3,1648.75L2086.3,1648.75z"/>
	<path class="st16" d="M2007.42,1065.47c-0.48-13.85-11.03-24.92-24.27-26.28c-1.85-8.94-7.6-16.36-15.32-20.41
		c0.05-0.99,0.08-1.99,0.04-3c-0.62-17.98-15.5-32.06-33.25-31.43c-3.05,0.11-5.98,0.67-8.76,1.58
		c-6.5-8.64-16.87-14.08-28.39-13.67c-6.25,0.22-12.03,2.16-16.97,5.3c-5.6-4.06-12.49-6.37-19.9-6.11
		c-7.93,0.28-15.08,3.45-20.54,8.45c-4.86-3-10.61-4.65-16.72-4.44c-11.29,0.4-20.81,7.08-25.66,16.57
		c-3.41-1.65-7.19-2.61-11.23-2.47c-12.59,0.45-22.49,10.58-23.25,23.06c-0.37,0.56-0.76,1.09-1.09,1.68
		c-11.78,2.37-20.96,11.7-23.39,23.49c-0.72-0.04-1.44-0.06-2.18-0.04c-14.85,0.53-26.47,13.16-25.95,28.22
		c0.24,7.08,3.14,13.4,7.66,18.09c-4.52,38.98,1.83,107.35,9.93,138c1.47,5.56,9.51,4.44,9.53-1.31
		c0.11-36.91,6.13-107.64,42.91-103.54c35.12,3.92,61.09,4.75,80.56,3.92c19.48-0.54,45.33-3.21,80.1-9.61
		c36.4-6.69,47.28,63.44,49.92,100.26c0.42,5.73,8.52,6.27,9.6,0.63c5.58-29.09,7.36-90.83,1.72-130.29
		C2005.78,1077.44,2007.63,1071.67,2007.42,1065.47L2007.42,1065.47z"/>
	<path class="st17" d="M1915.53,1340.04c0,0-1.1-5.44-10.74,2.25c0,0-29.16,18.18-68.68,18.18c-0.88,0-12.28,0-12.28,10.62
		c0,0,1.39,9.32,12.28,10.62C1877.33,1386.64,1918.99,1348.5,1915.53,1340.04L1915.53,1340.04z"/>
	<path class="st1" d="M872.24,1349.73c225.62,0,408.51-182.89,408.51-408.51c0-225.61-182.89-408.51-408.51-408.51
		c-225.61,0-408.51,182.9-408.51,408.51C463.73,1166.84,646.63,1349.73,872.24,1349.73L872.24,1349.73z"/>
	<path class="st1" d="M2768.3,1063.82c208.9,0,378.25-169.34,378.25-378.25c0-208.9-169.35-378.25-378.25-378.25
		c-208.9,0-378.25,169.35-378.25,378.25C2390.05,894.48,2559.4,1063.82,2768.3,1063.82L2768.3,1063.82z"/>
	<path class="st1" d="M779.93,2967.01c293.77,0,531.92-238.15,531.92-531.92c0-293.76-238.15-531.91-531.92-531.91
		c-293.77,0-531.91,238.15-531.91,531.91C248.02,2728.86,486.17,2967.01,779.93,2967.01L779.93,2967.01z"/>
	<path class="st1" d="M3121.04,3341.36c208.9,0,378.25-169.34,378.25-378.25c0-208.9-169.35-378.25-378.25-378.25
		c-208.9,0-378.25,169.35-378.25,378.25C2742.79,3172.02,2912.14,3341.36,3121.04,3341.36L3121.04,3341.36z"/>
	<path class="st1" d="M3278.9,2208.22c251.71,0,455.76-204.05,455.76-455.76s-204.05-455.77-455.76-455.77
		s-455.77,204.06-455.77,455.77S3027.19,2208.22,3278.9,2208.22L3278.9,2208.22z"/>
	<path class="st18" d="M3610.81,2234.62c-19.31-83.73-45.61-145.59-81.23-157.1c-105.79-34.17-224.74-42.03-199.49-117.07
		c15.95-47.4-113.78-47.4-97.83,0c25.25,75.04-80.63,82.9-186.41,117.07c-45.91,14.83-77.35,75.5-98.87,156.62
		c102.74,37.06,214.97,57.49,332.56,57.49C3396.64,2291.63,3508.43,2271.38,3610.81,2234.62L3610.81,2234.62z"/>
	<path class="st12" d="M3118.13,1704.88c19.86-8.02,25.31-40.9,12.16-73.43c-13.14-32.53-39.9-52.4-59.76-44.37
		c-19.86,8.02-25.31,40.9-12.17,73.43C3071.51,1693.04,3098.26,1712.91,3118.13,1704.88L3118.13,1704.88z"/>
	<path class="st12" d="M3439.66,1704.89c-19.86-8.03-25.31-40.91-12.16-73.44c13.14-32.53,39.9-52.4,59.76-44.37
		c19.86,8.02,25.31,40.9,12.17,73.43C3486.28,1693.04,3459.53,1712.91,3439.66,1704.89L3439.66,1704.89z"/>
	<g>
		<defs>
			<polygon id="SVGID_5_" points="3201.12,1791.11 3220.72,2075.43 3338.37,2075.43 3357.98,1791.11 3201.12,1791.11 			"/>
		</defs>
		<use xlink:href="#SVGID_5_"  style="overflow:visible;fill:#FBC5A1;"/>
		<clipPath id="SVGID_6_">
			<use xlink:href="#SVGID_5_"  style="overflow:visible;"/>
		</clipPath>
		<path class="st19" d="M3279.55,1961.37c93.85,0,196.08-129.72,196.08-289.74c0-160.02,57.52-289.74-196.08-289.74
			s-196.08,129.72-196.08,289.74C3083.47,1831.65,3185.69,1961.37,3279.55,1961.37L3279.55,1961.37z"/>
	</g>
	<path class="st20" d="M3279.55,1926.73c93.85,0,196.08-129.72,196.08-289.74s57.52-289.74-196.08-289.74
		s-196.08,129.72-196.08,289.74S3185.69,1926.73,3279.55,1926.73L3279.55,1926.73z"/>
	<path class="st17" d="M3610.81,2234.62c-19.31-83.73-45.61-145.59-81.24-157.1c-40.44-13.06-82.8-22.28-118.3-32.88
		c-27.01,34.28-76.18,57.22-132.38,57.22c-54.37,0-102.14-21.49-129.65-53.93c-30.97,9.28-67.19,17.89-103.4,29.59
		c-45.9,14.83-77.34,75.5-98.86,156.62c102.74,37.06,214.97,57.49,332.56,57.49C3396.64,2291.63,3508.43,2271.38,3610.81,2234.62
		L3610.81,2234.62z"/>
	<path class="st16" d="M3539.45,1548.94c0-260.19-157.89-335.66-258.55-335.66s-262.56,75.47-262.56,335.66
		c0,120.9,23.65,89.36,23.65,89.36l197.12-69l39.78-164.47l39.79,164.47l197.12,69C3515.8,1638.3,3539.45,1669.84,3539.45,1548.94
		L3539.45,1548.94z"/>
	<path class="st17" d="M3358.5,1808.61c-2.63-3.68-13.64,12.67-53.09-3.68c-10.93-4.53-23.3,7.11-26.52,10.43
		c-3.21-3.32-15.58-14.96-26.51-10.43c-39.45,16.35-50.46,0-53.09,3.68c-0.94,1.32,31.09,45.53,79.6,45.53
		C3327.41,1854.14,3359.44,1809.93,3358.5,1808.61L3358.5,1808.61z"/>
	<path class="st14" d="M3374.99,1633.73c-20.8,1.45-40.54,16.27-42.31-2.92c-2.06-22.15,18.53-36.77,39.26-38.92
		c16.14-1.66,39.2,15.21,38.44,34.48C3409.53,1647.87,3395.78,1632.27,3374.99,1633.73L3374.99,1633.73z"/>
	<path class="st14" d="M3182.8,1633.73c20.8,1.45,40.54,16.27,42.31-2.92c2.06-22.15-18.53-36.77-39.26-38.92
		c-16.14-1.66-39.2,15.21-38.44,34.48C3148.26,1647.87,3162.01,1632.27,3182.8,1633.73L3182.8,1633.73z"/>
	<path class="st16" d="M567.05,1083.11c-16.13-20.98-5.41-41.13,18.95-54.48c35.09-19.24,26.31-49.32-16.98-68.56
		c-43.29-19.23-51.47-77.01-5.85-108.86c45.64-31.87,57.31-57.43,25.12-100.73c-32.2-43.31-8.04-116.65,41.1-126.25
		c49.15-9.62,41.73-15.27,52.22-53.39c18.26-66.28,96.91-116.88,139.02-73.56c60.22-71.5,195.64-16.93,220.15,49.22
		c25.98,70.08,49.49,69.38,88.1,88.75c38.63,19.38,51.24,106.75,21.95,143.18c-38.74,48.2-17.41,69.69,29.97,92.54
		c47.38,22.85,35.78,56.57-1.96,75.49c-37.71,18.92-61.12,52.72-26.02,71.96c25.69,14.09,33.27,34.19,23.37,64.86
		C1129.26,1228.69,697.34,1252.67,567.05,1083.11L567.05,1083.11z"/>
	<path class="st21" d="M1165.83,1358.53c-17.08-74.07-40.34-128.78-71.85-138.96c-93.58-30.22-198.79-37.17-176.45-103.55
		c14.11-41.93-100.64-41.93-86.54,0c22.33,66.38-71.31,73.33-164.89,103.55c-40.6,13.11-68.42,66.78-87.45,138.53
		c90.87,32.78,190.15,50.86,294.16,50.86C976.39,1408.96,1075.27,1391.04,1165.83,1358.53L1165.83,1358.53z"/>
	<path class="st22" d="M721.93,889.97c17.57-7.1,22.39-36.18,10.76-64.95c-11.63-28.78-35.29-46.35-52.86-39.25
		c-17.57,7.1-22.39,36.18-10.76,64.96C680.69,879.49,704.36,897.07,721.93,889.97L721.93,889.97z"/>
	<path class="st22" d="M1022.56,889.97c-17.57-7.1-22.39-36.18-10.76-64.95c11.62-28.78,35.29-46.35,52.86-39.25
		c17.57,7.1,22.39,36.18,10.76,64.96C1063.8,879.49,1040.13,897.07,1022.56,889.97L1022.56,889.97z"/>
	<g>
		<defs>
			<polygon id="SVGID_7_" points="803.45,966.23 820.79,1217.72 924.85,1217.72 942.2,966.23 803.45,966.23 			"/>
		</defs>
		<use xlink:href="#SVGID_7_"  style="overflow:visible;fill:#FCD9C1;"/>
		<clipPath id="SVGID_8_">
			<use xlink:href="#SVGID_7_"  style="overflow:visible;"/>
		</clipPath>
		<path class="st23" d="M872.82,1114.64c83.02,0,173.44-114.74,173.44-256.28c0-141.54,50.88-256.28-173.44-256.28
			c-224.32,0-173.44,114.74-173.44,256.28C699.38,999.9,789.81,1114.64,872.82,1114.64L872.82,1114.64z"/>
	</g>
	<path class="st21" d="M872.82,1086.2c83.02,0,173.44-114.75,173.44-256.29c0-141.54,50.88-256.28-173.44-256.28
		c-224.32,0-173.44,114.74-173.44,256.28C699.38,971.46,789.8,1086.2,872.82,1086.2L872.82,1086.2z"/>
	<path class="st24" d="M1165.83,1358.53c-17.08-74.07-40.34-128.78-71.85-138.96c-35.78-11.56-73.24-19.71-104.64-29.08
		c-23.89,30.32-67.38,50.61-117.09,50.61c-48.09,0-90.35-19.01-114.68-47.7c-27.39,8.21-59.43,15.82-91.46,26.17
		c-40.6,13.11-68.42,66.78-87.45,138.53c90.87,32.78,190.15,50.86,294.16,50.86C976.39,1408.96,1075.27,1391.04,1165.83,1358.53
		L1165.83,1358.53z"/>
	<path class="st16" d="M1104.57,755.16c0-186.63-140.78-240.76-230.54-240.76c-89.75,0-234.11,54.13-234.11,240.76
		c0,86.72,21.09,64.09,21.09,64.09s96.73-40.07,211.23-40.07c114.5,0,211.23,40.07,211.23,40.07S1104.57,841.87,1104.57,755.16
		L1104.57,755.16z"/>
	<g>
		<defs>
			<path id="SVGID_9_" d="M803.57,945.94c10,0,127.36,0,137.35,0c66.41,0,12.66,81.8-61.53,88.09c-1.77,0.24-6.54,0.37-7.15,0.36
				c-0.61,0.01-5.38-0.12-7.15-0.36C790.91,1027.73,737.15,945.94,803.57,945.94L803.57,945.94z"/>
		</defs>
		<use xlink:href="#SVGID_9_"  style="overflow:visible;fill:#E26668;"/>
		<clipPath id="SVGID_10_">
			<use xlink:href="#SVGID_9_"  style="overflow:visible;"/>
		</clipPath>
		<path class="st25" d="M931.79,918.61c0,0,15.96,0,15.96,15.96v17.34c0,0,0,15.96-15.96,15.96H812.7c0,0-15.96,0-15.96-15.96
			v-17.34c0,0,0-15.96,15.96-15.96H931.79L931.79,918.61z"/>
		<path class="st26" d="M803.57,1061.71c10,0,127.36,0,137.35,0c66.41,0,12.66-81.8-61.53-88.08c-1.77-0.24-6.54-0.38-7.15-0.36
			c-0.61-0.01-5.38,0.12-7.15,0.36C790.91,979.92,737.15,1061.71,803.57,1061.71L803.57,1061.71z"/>
		<path class="st25" d="M915.65,1013.96c0,0,11.64,0,11.64,11.64v12.64c0,0,0,11.63-11.64,11.63h-86.81c0,0-11.64,0-11.64-11.63
			v-12.64c0,0,0-11.64,11.64-11.64H915.65L915.65,1013.96z"/>
	</g>
	<path class="st14" d="M787.25,829.08c18.4,1.29,35.85,14.39,37.42-2.58c1.82-19.59-16.39-32.53-34.73-34.43
		c-14.27-1.47-34.67,13.45-34,30.5C756.7,841.59,768.85,827.79,787.25,829.08L787.25,829.08z"/>
	<path class="st14" d="M957.24,829.08c-18.4,1.29-35.85,14.39-37.42-2.58c-1.81-19.59,16.39-32.53,34.73-34.43
		c14.27-1.47,34.67,13.45,34,30.5C987.79,841.59,975.63,827.79,957.24,829.08L957.24,829.08z"/>
	<path class="st22" d="M2615.81,604.85c17.49-7.07,22.28-36.02,10.71-64.66c-11.57-28.64-35.13-46.14-52.62-39.07
		c-17.49,7.07-22.29,36.01-10.71,64.66C2574.76,594.42,2598.32,611.91,2615.81,604.85L2615.81,604.85z"/>
	<path class="st22" d="M2920.8,604.85c-17.49-7.07-22.29-36.02-10.72-64.66c11.58-28.64,35.14-46.14,52.63-39.07
		c17.49,7.07,22.28,36.01,10.71,64.66C2961.84,594.42,2938.29,611.91,2920.8,604.85L2920.8,604.85z"/>
	<g>
		<defs>
			<polygon id="SVGID_11_" points="2681.98,646.6 2703.56,942.27 2833.05,942.27 2854.63,646.6 2681.98,646.6 			"/>
		</defs>
		<use xlink:href="#SVGID_11_"  style="overflow:visible;fill:#FCD9C1;"/>
		<clipPath id="SVGID_12_">
			<use xlink:href="#SVGID_11_"  style="overflow:visible;"/>
		</clipPath>
		<path class="st27" d="M2768.3,849.97c103.3,0,215.82-154.29,215.82-330.41s63.3-318.9-215.82-318.9s-215.81,142.78-215.81,318.9
			S2665,849.97,2768.3,849.97L2768.3,849.97z"/>
	</g>
	<g>
		<defs>
			<path id="SVGID_13_" d="M2768.3,823.21c33.15,0,123.89-43.05,157.77-88.91c23.11-31.27,12.58-74.55,12.58-131.68
				c0-140.9,52.95-312.67-170.35-312.67s-170.35,171.77-170.35,312.67c0,58.09-10.02,100.71,13.75,132.1
				C2645.6,779.46,2735.15,823.21,2768.3,823.21L2768.3,823.21z"/>
		</defs>
		<use xlink:href="#SVGID_13_"  style="overflow:visible;fill:#FCD9C1;"/>
		<clipPath id="SVGID_14_">
			<use xlink:href="#SVGID_13_"  style="overflow:visible;"/>
		</clipPath>
		<path class="st28" d="M2937.81,538.21c0,0-6.32,88.82-30.26,104.81c-23.95,15.99-56.13,24.23-56.13,24.23h-166.24
			c0,0-32.18-8.24-56.12-24.23c-23.95-15.99-30.26-104.81-30.26-104.81c-7.49,30.29-20.44,119.99-17.45,149.44
			c2.99,29.45,18.71,49.64,18.71,49.64s109.07,90.59,116.55,94.79c6.51,3.66,42.44,2.23,51.69,1.79c9.25,0.44,45.19,1.87,51.69-1.79
			c7.49-4.21,116.56-94.79,116.56-94.79s15.71-20.19,18.7-49.64C2958.25,658.2,2945.29,568.5,2937.81,538.21L2937.81,538.21z"/>
	</g>
	<path class="st13" d="M2849.55,533.14c-17.72,1.24-34.53,13.86-36.04-2.48c-1.75-18.86,15.79-31.32,33.45-33.14
		c13.74-1.42,33.38,12.95,32.73,29.36C2878.97,545.18,2867.26,531.9,2849.55,533.14L2849.55,533.14z"/>
	<path class="st13" d="M2687.05,533.14c17.72,1.24,34.53,13.86,36.04-2.48c1.75-18.86-15.78-31.32-33.44-33.14
		c-13.75-1.42-33.39,12.95-32.74,29.36C2657.63,545.18,2669.34,531.9,2687.05,533.14L2687.05,533.14z"/>
	<path class="st14" d="M2849.98,533.31c-17.68,1.24-34.45,13.83-35.96-2.48c-1.75-18.83,15.75-31.26,33.37-33.08
		c13.72-1.42,33.32,12.93,32.67,29.31C2879.34,545.33,2867.66,532.08,2849.98,533.31L2849.98,533.31z"/>
	<path class="st14" d="M2686.62,533.31c17.68,1.24,34.46,13.83,35.97-2.48c1.74-18.83-15.75-31.26-33.38-33.08
		c-13.72-1.42-33.32,12.93-32.67,29.31C2657.26,545.33,2668.95,532.08,2686.62,533.31L2686.62,533.31z"/>
	<path class="st16" d="M2930.79,324.13c0,0,35.47,7.3,34.42,42.78c-1.04,35.47-25.34,189.67-25.34,189.67l-49.77-158.37
		L2930.79,324.13L2930.79,324.13z"/>
	<path class="st29" d="M2904.32,645.08c-34.51,17.99-37.64-18.18-74.1-27.4c-36.93-8.99-54.13,16.3-61.92,23.69
		c-7.79-7.39-30.45-30.07-61.92-23.69c-36.46,9.22-39.59,45.39-74.1,27.4c-3.32,0,91.85,95.14,136.02,28.87
		C2812.47,740.23,2907.65,645.08,2904.32,645.08L2904.32,645.08z"/>
	<path class="st29" d="M2742.99,225.02l-18.78-26.08c0,0,211.05-23.39,210.75,92.85c-0.4,154.42-137.72,186.75-137.72,186.75
		l10.43-41.73l-82.42,43.82l10.44-25.04l-68.86,25.04l25.04-57.38l-61.56,22.95c0,0-24.11,60.97-32.98,110.38
		c0,0-47.89-163.44-17.1-176.11l-11.47-6.26l14.6-29.21l-21.91-9.39l18.78-27.13l-8.34-11.48l41.73-24l-21.91-11.48
		C2591.71,261.53,2661.61,203.11,2742.99,225.02L2742.99,225.02z"/>
	<path class="st3" d="M3048.93,1068c-32.22-86.52-63.97-160.71-63.97-160.71s-0.68-1.32-2.25-1.68
		c-43.11-31.08-144.1-39.4-144.1-39.4l0,0l0,0v0c0,0.04-4.52,51.9-70.42,51.9c-65.92,0-70.46-51.9-70.46-51.9
		s-101.27,8.35-144.28,39.53c-1.25,0.48-1.81,1.55-1.81,1.55s-31.74,74.18-63.96,160.71c38.3,14.15,78.24,25.48,119.48,33.72l0,0
		c0.1,0.02,0.19,0.04,0.29,0.05c5.63,1.13,11.3,2.18,16.99,3.19c1.6,0.28,3.21,0.56,4.82,0.83c4.75,0.82,9.52,1.59,14.31,2.32
		c1.25,0.19,2.49,0.4,3.74,0.58c5.52,0.82,11.07,1.57,16.64,2.28c2.21,0.28,4.42,0.54,6.64,0.8c3.66,0.44,7.33,0.85,11.01,1.23
		c2.44,0.26,4.87,0.52,7.32,0.76c5.11,0.49,10.24,0.94,15.39,1.34v-0.01c21.09,1.63,42.43,2.49,63.99,2.49
		c21.48,0,42.73-0.85,63.73-2.46l0,0c5.18-0.4,10.34-0.85,15.48-1.35c2.44-0.23,4.87-0.49,7.3-0.75c3.69-0.39,7.38-0.8,11.06-1.23
		c2.18-0.26,4.37-0.51,6.54-0.79c5.58-0.71,11.15-1.46,16.69-2.28c1.22-0.18,2.43-0.38,3.64-0.56c4.84-0.74,9.66-1.52,14.46-2.34
		c1.54-0.27,3.08-0.53,4.62-0.8c47.38-8.38,93.13-20.8,136.77-36.89C3048.7,1068.09,3048.82,1068.04,3048.93,1068L3048.93,1068z"/>
	<path class="st16" d="M1023,2005.29l-402.15,9.93l-76.64-12.99c0,0-429.59,392.97,145.21,550.48
		c40.58,11.12,143.18,15.43,188.35,3.05C1452.58,2398.25,1023,2005.29,1023,2005.29L1023,2005.29z"/>
	<path class="st21" d="M1160.9,2981.83c-22.17-96.54-52.37-167.86-93.27-181.13c-121.46-39.4-258.03-48.45-229.04-134.98
		c18.31-54.65-130.64-54.65-112.33,0c28.99,86.53-92.57,95.58-214.03,134.98c-52.7,17.09-88.81,87.05-113.51,180.58
		c117.96,42.73,246.82,66.29,381.83,66.29C915,3047.57,1043.35,3024.22,1160.9,2981.83L1160.9,2981.83z"/>
	<g>
		<defs>
			<polygon id="SVGID_15_" points="690.51,2470.48 713.02,2798.29 848.1,2798.29 870.61,2470.48 690.51,2470.48 			"/>
		</defs>
		<use xlink:href="#SVGID_15_"  style="overflow:visible;fill:#FCD9C1;"/>
		<clipPath id="SVGID_16_">
			<use xlink:href="#SVGID_15_"  style="overflow:visible;"/>
		</clipPath>
		<path class="st30" d="M779.93,2669.12c83.02,0,173.44-114.74,173.44-256.28c0-141.54,50.88-256.28-173.44-256.28
			c-224.32,0-173.44,114.74-173.44,256.28C606.49,2554.38,696.92,2669.12,779.93,2669.12L779.93,2669.12z"/>
	</g>
	<path class="st21" d="M780.56,2626.85c107.76,0,225.13-149.57,225.13-334.06c0-184.5,66.04-334.07-225.13-334.07
		c-291.17,0-225.13,149.57-225.13,334.07C555.43,2477.28,672.81,2626.85,780.56,2626.85L780.56,2626.85z"/>
	<path class="st10" d="M1160.9,2981.83c-22.17-96.54-52.37-167.86-93.27-181.13c-46.44-15.06-95.07-25.69-135.83-37.91
		c-31.01,39.53-87.47,65.97-151.99,65.97c-62.43,0-117.27-24.77-148.86-62.17c-35.55,10.7-77.14,20.63-118.71,34.11
		c-52.7,17.09-88.81,87.05-113.51,180.58c117.96,42.73,246.82,66.29,381.83,66.29C915,3047.57,1043.35,3024.22,1160.9,2981.83
		L1160.9,2981.83z"/>
	<path class="st17" d="M872.16,2491.39c-3.02-4.24-15.66,14.62-60.96-4.24c-12.55-5.22-26.74,8.2-30.44,12.03
		c-3.7-3.83-17.9-17.25-30.44-12.03c-45.3,18.86-57.94,0-60.96,4.24c-1.09,1.53,35.69,52.5,91.4,52.5
		C836.47,2543.89,873.25,2492.92,872.16,2491.39L872.16,2491.39z"/>
	<path class="st31" d="M673.28,2291.7c23.88,1.68,46.54,18.76,48.58-3.36c2.36-25.54-21.28-42.4-45.08-44.87
		c-18.53-1.92-45,17.53-44.13,39.75C633.62,2308,649.4,2290.02,673.28,2291.7L673.28,2291.7z"/>
	<path class="st31" d="M893.93,2291.7c-23.88,1.68-46.54,18.76-48.58-3.36c-2.35-25.54,21.28-42.4,45.08-44.87
		c18.53-1.92,45,17.53,44.13,39.75C933.59,2308,917.8,2290.02,893.93,2291.7L893.93,2291.7z"/>
	<path class="st16" d="M1121.71,2240.42c0-96.74-27.32-175.71-75.05-233.15c13.84-39.04,5.57-89.88-20.45-123.4
		c-38.04-49-99.62-68.63-158.31-80.01c-69.96-13.56-143.4-18.77-211.1,4.43c-67.7,23.19-128.76,79.46-144.36,153.45
		c-3.67,17.4-4.12,35.54-1.81,53.32c-43.83,56.71-68.74,132.94-68.74,225.36c0,62.43,16.12,129.3,42.68,192.63
		c0,0,17.39,30.77,55.27,29.68l-11.07-29.68h0.43c-11.86-39.51-18.71-79.59-18.71-117.73c0-17.53,1.06-34.35,3.03-50.49
		c2.03-6.43,5.01-16.01,8.61-27.47c45.68-6.96,272.87-28.91,307.39-157.01c0,0,63.1,211.41,219.4,183.49
		c2.29,18.54,3.83,34.82,4.11,46.24c0.02,1.75,0.09,3.47,0.09,5.24c0,37.06-6.51,75.95-17.76,114.38c-0.05,0.05-0.1,0.1-0.1,0.1
		l-10.33,37.27c42.84,11.22,60.44-49.22,60.44-49.22c0-0.16-0.03-0.3-0.04-0.46C1108.09,2358.77,1121.71,2297.73,1121.71,2240.42
		L1121.71,2240.42z"/>
	<path class="st16" d="M3278.89,1282.5c66.05,0,119.58-48.95,119.58-109.34c0-60.38-53.53-109.34-119.58-109.34
		c-66.04,0-119.57,48.96-119.57,109.34C3159.32,1233.55,3212.85,1282.5,3278.89,1282.5L3278.89,1282.5z"/>
	<path class="st10" d="M3276.13,2900.49c-17.78-7.19-22.66-36.64-10.89-65.77c11.77-29.13,35.73-46.92,53.52-39.74
		c17.79,7.19,22.67,36.63,10.9,65.77C3317.88,2889.88,3293.92,2907.67,3276.13,2900.49L3276.13,2900.49z"/>
	<path class="st10" d="M2965.95,2900.49c17.78-7.19,22.66-36.64,10.89-65.77c-11.77-29.13-35.73-46.92-53.52-39.74
		c-17.79,7.19-22.67,36.63-10.9,65.77C2924.2,2889.88,2948.16,2907.67,2965.95,2900.49L2965.95,2900.49z"/>
	<g>
		<defs>
			<polygon id="SVGID_17_" points="3208.84,2942.95 3186.89,3220.25 3055.19,3220.25 3033.24,2942.95 3208.84,2942.95 			"/>
		</defs>
		<use xlink:href="#SVGID_17_"  style="overflow:visible;fill:#FABF97;"/>
		<clipPath id="SVGID_18_">
			<use xlink:href="#SVGID_17_"  style="overflow:visible;"/>
		</clipPath>
		<path class="st32" d="M3121.04,3126.96c-105.06,0-219.5-156.92-219.5-336.05c0-179.13-64.38-324.34,219.5-324.34
			s219.5,145.21,219.5,324.34C3340.54,2970.04,3226.1,3126.96,3121.04,3126.96L3121.04,3126.96z"/>
	</g>
	<path class="st12" d="M3121.04,3099.16c-33.72,0-126.01-43.79-160.46-90.43c-23.5-31.8-12.8-52.41-12.8-110.51
		c0-143.3-53.85-318.01,173.26-318.01c227.11,0,173.26,174.71,173.26,318.01c0,59.08,10.19,79.01-13.99,110.94
		C3245.84,3054.67,3154.76,3099.16,3121.04,3099.16L3121.04,3099.16z"/>
	<path class="st14" d="M3038.41,2827.55c18.01,1.26,35.11,14.1,36.65-2.52c1.78-19.19-16.05-31.85-34.02-33.71
		c-13.98-1.44-33.95,13.17-33.29,29.86C3008.48,2839.8,3020.39,2826.29,3038.41,2827.55L3038.41,2827.55z"/>
	<path class="st14" d="M3203.67,2827.55c-18.01,1.26-35.11,14.1-36.65-2.52c-1.78-19.19,16.05-31.85,34.02-33.71
		c13.98-1.44,33.95,13.17,33.29,29.86C3233.6,2839.8,3221.69,2826.29,3203.67,2827.55L3203.67,2827.55z"/>
	<g>
		<defs>
			<path id="SVGID_19_" d="M3040.91,2957.67c11.67,0,148.59,0,160.26,0c77.48,0,14.76,77.3-71.79,83.24
				c-2.06,0.23-7.63,0.36-8.34,0.35c-0.71,0.01-6.28-0.12-8.34-0.35C3026.15,3034.97,2963.43,2957.67,3040.91,2957.67
				L3040.91,2957.67z"/>
		</defs>
		<use xlink:href="#SVGID_19_"  style="overflow:visible;fill:#E26668;"/>
		<clipPath id="SVGID_20_">
			<use xlink:href="#SVGID_19_"  style="overflow:visible;"/>
		</clipPath>
		<path class="st33" d="M3190.51,2931.84c0,0,18.62,0,18.62,18.62v9.31c0,0,0,18.63-18.62,18.63h-138.94c0,0-18.62,0-18.62-18.63
			v-9.31c0,0,0-18.62,18.62-18.62H3190.51L3190.51,2931.84z"/>
		<path class="st34" d="M3040.91,3067.08c11.67,0,148.59,0,160.26,0c77.48,0,14.76-77.3-71.79-83.24c-2.06-0.23-7.63-0.35-8.34-0.34
			c-0.71-0.01-6.28,0.11-8.34,0.34C3026.15,2989.78,2963.43,3067.08,3040.91,3067.08L3040.91,3067.08z"/>
		<path class="st33" d="M3171.68,3021.95c0,0,13.58,0,13.58,13.58v6.79c0,0,0,13.57-13.58,13.57H3070.4c0,0-13.58,0-13.58-13.57
			v-6.79c0,0,0-13.58,13.58-13.58H3171.68L3171.68,3021.95z"/>
	</g>
	<path class="st16" d="M3329.84,2578.93c-1.27-10.11-11.58-8.58-21.74-7.94c-31.72,1.98-39.47-8.7-104.23-46.83
		c-64.53-37.99-130.56-22.85-174.56,9.86c-202.43,46.72-83.86,321.51-83.86,321.51s-0.75-144.64,61.86-188.61
		c104.83,71.48,211.95,75.37,272.94,32.86c23.53,54.88,15.85,155.75,15.85,155.75s40.48-102.03,18.38-192.32
		C3328.03,2640.28,3333.99,2611.87,3329.84,2578.93L3329.84,2578.93z"/>
	<path class="st15" d="M3406.45,3348.13c-32.77-88-65.05-163.45-65.05-163.45s-0.7-1.34-2.29-1.71
		c-43.85-31.61-146.56-40.07-146.56-40.07l0,0l0,0l0,0c0,0.05-4.6,52.78-71.62,52.78c-67.05,0-71.66-52.78-71.66-52.78
		s-103,8.49-146.75,40.21c-1.27,0.48-1.84,1.57-1.84,1.57s-32.28,75.45-65.05,163.45c38.96,14.39,79.58,25.91,121.52,34.29l0,0
		c0.1,0.02,0.2,0.04,0.29,0.06c5.74,1.14,11.5,2.21,17.28,3.23c1.63,0.29,3.27,0.58,4.91,0.85c4.83,0.83,9.68,1.62,14.55,2.36
		c1.27,0.19,2.53,0.4,3.8,0.6c5.62,0.82,11.27,1.59,16.93,2.31c2.24,0.28,4.5,0.55,6.75,0.81c3.72,0.45,7.46,0.86,11.2,1.25
		c2.48,0.27,4.95,0.54,7.44,0.77c5.21,0.5,10.42,0.97,15.66,1.37v-0.01c21.45,1.66,43.15,2.53,65.08,2.53
		c21.84,0,43.46-0.86,64.82-2.5l0,0c5.26-0.41,10.51-0.87,15.74-1.37c2.48-0.24,4.95-0.5,7.42-0.76c3.76-0.4,7.51-0.81,11.25-1.26
		c2.22-0.26,4.44-0.52,6.66-0.8c5.67-0.72,11.33-1.48,16.97-2.32c1.24-0.18,2.47-0.38,3.7-0.58c4.92-0.74,9.83-1.54,14.71-2.37
		c1.57-0.27,3.13-0.54,4.7-0.82c48.18-8.51,94.72-21.14,139.1-37.52C3406.22,3348.21,3406.34,3348.16,3406.45,3348.13
		L3406.45,3348.13z"/>
</g>
</svg>
